<svg width="21" height="20" viewBox="0 0 21 20" fill="none" xmlns="http://www.w3.org/2000/svg">
<path d="M7.56896 15.609C8.67808 16.6046 9.5036 17.2879 9.52018 17.301C9.69471 17.4572 11.5072 19 14.126 19C14.3912 19 14.6583 18.9835 14.9201 18.952C18.004 18.5785 19.0616 16.4607 19.3731 15.5662C19.6323 14.8262 19.1454 14.0321 18.5276 13.7581L15.215 12.2851C15.0213 12.2004 14.8031 12.1577 14.5649 12.1577C14.1801 12.1577 13.6416 12.2816 13.283 12.6289L12.2402 13.6394C12.1521 13.7249 11.9548 13.8105 11.7498 13.8105C11.6477 13.8105 11.5997 13.7878 11.5971 13.7869C10.9129 13.4431 9.8352 12.7554 8.58733 11.4334C7.4782 10.2545 6.95375 9.45424 6.71028 8.99087C6.64745 8.87219 6.73035 8.52401 6.88743 8.36694L7.81504 7.43932C8.27754 6.97595 8.4765 6.16003 8.28016 5.53871L7.23648 2.22269C7.04712 1.62406 6.4162 1.00274 5.68581 1.00012H5.66835H5.65265C4.32624 1.0455 3.19268 1.67554 2.46054 2.77507C1.66731 3.9636 1.34443 5.76822 1.67167 7.62956C1.78075 8.25087 1.96226 8.87743 2.22318 9.49089C2.56961 10.3077 3.05742 11.1 3.70143 11.8173C4.0819 12.2406 4.49291 12.6717 4.91265 13.0958" stroke="white" stroke-width="2" stroke-linecap="round" stroke-linejoin="round"/>
</svg>
