<svg width="32" height="23" viewBox="0 0 32 23" fill="none" xmlns="http://www.w3.org/2000/svg">
<path d="M1 1H7L12 14H28L31 4H13" stroke="white" stroke-width="2" stroke-linecap="round" stroke-linejoin="round"/>
<path d="M15 20C15 21.1046 14.1046 22 13 22C11.8954 22 11 21.1046 11 20C11 18.8954 11.8954 18 13 18C14.1046 18 15 18.8954 15 20Z" stroke="white" stroke-width="2"/>
<path d="M29 20C29 21.1046 28.1046 22 27 22C25.8954 22 25 21.1046 25 20C25 18.8954 25.8954 18 27 18C28.1046 18 29 18.8954 29 20Z" stroke="white" stroke-width="2"/>
</svg>
