<svg width="24" height="24" viewBox="0 0 24 24" fill="none" xmlns="http://www.w3.org/2000/svg">
<mask id="path-1-inside-1_3_59" fill="white">
<path fill-rule="evenodd" clip-rule="evenodd" d="M16.1814 17.0956C14.7855 18.2833 12.9764 19 11 19C6.58172 19 3 15.4183 3 11C3 6.58172 6.58172 3 11 3C15.4183 3 19 6.58172 19 11C19 12.7204 18.4569 14.314 17.5329 15.6187L21.3891 19.4749C21.7796 19.8654 21.7796 20.4986 21.3891 20.8891C20.9986 21.2796 20.3654 21.2796 19.9749 20.8891L16.1814 17.0956Z"/>
</mask>
<path d="M16.1814 17.0956L17.5956 15.6814L16.2907 14.3765L14.8853 15.5723L16.1814 17.0956ZM17.5329 15.6187L15.9008 14.4627L14.9255 15.8397L16.1187 17.0329L17.5329 15.6187ZM21.3891 19.4749L22.8033 18.0607L22.8033 18.0607L21.3891 19.4749ZM21.3891 20.8891L22.8033 22.3033L22.8033 22.3033L21.3891 20.8891ZM11 21C13.4689 21 15.7334 20.1027 17.4774 18.6188L14.8853 15.5723C13.8375 16.4639 12.4839 17 11 17V21ZM1 11C1 16.5228 5.47715 21 11 21V17C7.68629 17 5 14.3137 5 11H1ZM11 1C5.47715 1 1 5.47715 1 11H5C5 7.68629 7.68629 5 11 5V1ZM21 11C21 5.47715 16.5228 1 11 1V5C14.3137 5 17 7.68629 17 11H21ZM19.165 16.7746C20.3205 15.1431 21 13.1479 21 11H17C17 12.2929 16.5933 13.4849 15.9008 14.4627L19.165 16.7746ZM16.1187 17.0329L19.9749 20.8891L22.8033 18.0607L18.9471 14.2044L16.1187 17.0329ZM19.9749 20.8891C19.5844 20.4986 19.5844 19.8654 19.9749 19.4749L22.8033 22.3033C23.9749 21.1317 23.9749 19.2322 22.8033 18.0607L19.9749 20.8891ZM19.9749 19.4749C20.3654 19.0843 20.9986 19.0843 21.3891 19.4749L18.5607 22.3033C19.7322 23.4749 21.6317 23.4749 22.8033 22.3033L19.9749 19.4749ZM21.3891 19.4749L17.5956 15.6814L14.7671 18.5098L18.5607 22.3033L21.3891 19.4749Z" fill="#272727" mask="url(#path-1-inside-1_3_59)"/>
</svg>
