<svg width="23" height="15" viewBox="0 0 23 15" fill="none" xmlns="http://www.w3.org/2000/svg">
<path fill-rule="evenodd" clip-rule="evenodd" d="M1.47992 8.66438V11.9996C1.47992 12.943 2.24365 13.7067 3.1861 13.7067H16.8678C17.4528 13.7067 17.9977 13.4059 18.3103 12.9118L21.2363 8.27861C21.4121 8.00027 21.5 7.68384 21.5 7.36741C21.5 7.05196 21.4121 6.73455 21.2363 6.45621L18.3103 1.82403C17.9977 1.32888 17.4528 1.02905 16.8678 1.02905H3.1861C2.24365 1.02905 1.47992 1.79278 1.47992 2.73621V9.2699" fill="#272727"/>
<path fill-rule="evenodd" clip-rule="evenodd" d="M1.47992 8.66438V11.9996C1.47992 12.943 2.24365 13.7067 3.1861 13.7067H16.8678C17.4528 13.7067 17.9977 13.4059 18.3103 12.9118L21.2363 8.27861C21.4121 8.00027 21.5 7.68384 21.5 7.36741C21.5 7.05196 21.4121 6.73455 21.2363 6.45621L18.3103 1.82403C17.9977 1.32888 17.4528 1.02905 16.8678 1.02905H9.71979M6.04276 1.02905H3.1861C2.24365 1.02905 1.47992 1.79278 1.47992 2.73621V9.2699" fill="#272727"/>
<path d="M2.47992 8.66438C2.47992 8.1121 2.0322 7.66438 1.47992 7.66438C0.927635 7.66438 0.479919 8.1121 0.479919 8.66438H2.47992ZM18.3103 12.9118L19.1554 13.4463L19.1558 13.4457L18.3103 12.9118ZM21.2363 8.27861L20.3908 7.74462L20.3908 7.74465L21.2363 8.27861ZM21.2363 6.45621L22.0818 5.92222L22.0817 5.92216L21.2363 6.45621ZM18.3103 1.82403L17.4646 2.35778L17.4648 2.35808L18.3103 1.82403ZM9.71979 0.0290527C9.1675 0.0290527 8.71979 0.476768 8.71979 1.02905C8.71979 1.58134 9.1675 2.02905 9.71979 2.02905V0.0290527ZM6.04276 2.02905C6.59504 2.02905 7.04276 1.58134 7.04276 1.02905C7.04276 0.476768 6.59504 0.0290527 6.04276 0.0290527V2.02905ZM0.479919 9.2699C0.479919 9.82218 0.927635 10.2699 1.47992 10.2699C2.0322 10.2699 2.47992 9.82218 2.47992 9.2699H0.479919ZM0.479919 8.66438V11.9996H2.47992V8.66438H0.479919ZM0.479919 11.9996C0.479919 13.4949 1.69099 14.7067 3.1861 14.7067V12.7067C2.79631 12.7067 2.47992 12.3911 2.47992 11.9996H0.479919ZM3.1861 14.7067H16.8678V12.7067H3.1861V14.7067ZM16.8678 14.7067C17.7963 14.7067 18.66 14.2297 19.1554 13.4463L17.4651 12.3773C17.3355 12.5822 17.1092 12.7067 16.8678 12.7067V14.7067ZM19.1558 13.4457L22.0818 8.81258L20.3908 7.74465L17.4648 12.3778L19.1558 13.4457ZM22.0818 8.8126C22.3605 8.37126 22.5 7.86906 22.5 7.36741H20.5C20.5 7.49862 20.4636 7.62928 20.3908 7.74462L22.0818 8.8126ZM22.5 7.36741C22.5 6.86703 22.3606 6.36381 22.0818 5.92222L20.3908 6.9902C20.4635 7.1053 20.5 7.23688 20.5 7.36741H22.5ZM22.0817 5.92216L19.1557 1.28999L17.4648 2.35808L20.3908 6.99026L22.0817 5.92216ZM19.1559 1.29029C18.6599 0.5044 17.7954 0.0290527 16.8678 0.0290527V2.02905C17.1101 2.02905 17.3356 2.15336 17.4646 2.35778L19.1559 1.29029ZM16.8678 0.0290527H9.71979V2.02905H16.8678V0.0290527ZM6.04276 0.0290527H3.1861V2.02905H6.04276V0.0290527ZM3.1861 0.0290527C1.69099 0.0290527 0.479919 1.24087 0.479919 2.73621H2.47992C2.47992 2.34469 2.79631 2.02905 3.1861 2.02905V0.0290527ZM0.479919 2.73621V9.2699H2.47992V2.73621H0.479919Z" fill="white"/>
<path fill-rule="evenodd" clip-rule="evenodd" d="M13.9252 9.22317C13.4505 9.22317 12.9749 9.04152 12.6126 8.67919C11.8889 7.95453 11.8889 6.78061 12.6126 6.05595C13.3373 5.33129 14.5131 5.33129 15.2368 6.05595C15.5991 6.41828 15.7798 6.89292 15.7798 7.36757" fill="#272727"/>
<path d="M13.9252 9.22317C13.4505 9.22317 12.9749 9.04152 12.6126 8.67919C11.8889 7.95453 11.8889 6.78061 12.6126 6.05595C13.3373 5.33129 14.5131 5.33129 15.2368 6.05595C15.5991 6.41828 15.7798 6.89292 15.7798 7.36757" stroke="white" stroke-width="2" stroke-linecap="round" stroke-linejoin="round"/>
</svg>
