<svg width="24" height="18" viewBox="0 0 24 18" fill="none" xmlns="http://www.w3.org/2000/svg">
<path d="M21.7571 13.0617C21.2726 13.3269 21.0949 13.9346 21.3601 14.419C21.6253 14.9035 22.233 15.0812 22.7175 14.816L21.7571 13.0617ZM16.5487 14.6256C16.9934 14.9532 17.6194 14.8582 17.9469 14.4135C18.2744 13.9688 18.1795 13.3428 17.7348 13.0153L16.5487 14.6256ZM17.4965 12.5619V5.31915H15.4965V12.5619H17.4965ZM17.4965 5.31915C17.4965 5.03047 17.7486 4.73816 18.1329 4.73816V2.73816C16.7096 2.73816 15.4965 3.86141 15.4965 5.31915H17.4965ZM18.1329 4.73816H21.4317V2.73816H18.1329V4.73816ZM21.4317 4.73816C21.8161 4.73816 22.0682 5.03047 22.0682 5.31915H24.0682C24.0682 3.86141 22.855 2.73816 21.4317 2.73816V4.73816ZM22.0682 5.31915V12.5619H24.0682V5.31915H22.0682ZM22.0682 12.5619C22.0682 12.7607 21.9565 12.9525 21.7571 13.0617L22.7175 14.816C23.5103 14.382 24.0682 13.5443 24.0682 12.5619H22.0682ZM17.7348 13.0153C17.5807 12.9018 17.4965 12.7361 17.4965 12.5619H15.4965C15.4965 13.4147 15.9184 14.1614 16.5487 14.6256L17.7348 13.0153Z" fill="white"/>
<path d="M0.931824 4.1786V1.67134C0.931824 1.30072 1.2409 1 1.62182 1H15.4606C15.842 1 16.1506 1.30072 16.1506 1.67134V12.7804C16.1506 13.1514 15.842 13.4517 15.4606 13.4517H6.46591M1.62182 13.4517C1.2409 13.4517 0.931824 13.1514 0.931824 12.7804V9.00291" stroke="white" stroke-width="2" stroke-linecap="round" stroke-linejoin="round"/>
<path fill-rule="evenodd" clip-rule="evenodd" d="M6.46594 14.1433C6.46594 15.2896 5.53674 16.2188 4.39091 16.2188C3.24456 16.2188 2.31537 15.2896 2.31537 14.1433C2.31537 12.9974 3.24456 12.0682 4.39091 12.0682C5.53674 12.0682 6.46594 12.9974 6.46594 14.1433Z" stroke="white" stroke-width="2" stroke-linecap="round" stroke-linejoin="round"/>
<path fill-rule="evenodd" clip-rule="evenodd" d="M21.6847 14.1433C21.6847 15.2896 20.7555 16.2188 19.6091 16.2188C18.4633 16.2188 17.5341 15.2896 17.5341 14.1433C17.5341 12.9974 18.4633 12.0682 19.6091 12.0682C20.7555 12.0682 21.6847 12.9974 21.6847 14.1433Z" stroke="white" stroke-width="2" stroke-linecap="round" stroke-linejoin="round"/>
</svg>
