<svg width="26" height="24" viewBox="0 0 26 24" fill="none" xmlns="http://www.w3.org/2000/svg">
<path d="M1.625 22.5C2.9375 16.6667 4.6875 15.5 6.875 15.5" stroke="white" stroke-width="1.75" stroke-linecap="round" stroke-linejoin="round"/>
<path d="M24.375 22.5C23.0625 16.6667 21.3125 15.5 19.125 15.5" stroke="white" stroke-width="1.75" stroke-linecap="round" stroke-linejoin="round"/>
<path d="M18.25 7.625C18.25 9.66336 17.7178 11.6809 16.7744 13.1606C15.838 14.6295 14.5529 15.5 13 15.5C11.4471 15.5 10.162 14.6295 9.22557 13.1606C8.2822 11.6809 7.75 9.66336 7.75 7.625C7.75 5.59321 8.2775 4.07025 9.1483 3.06788C10.0049 2.08186 11.2792 1.5 13 1.5C14.7208 1.5 15.9951 2.08186 16.8517 3.06788C17.7225 4.07025 18.25 5.59321 18.25 7.625Z" stroke="white" stroke-width="1.75"/>
</svg>
